<svg width="107" height="39" viewBox="0 0 107 39" fill="none" xmlns="http://www.w3.org/2000/svg">
<g clip-path="url(#clip0)">
<path d="M28.9585 5.66645H1.6611C0.588706 5.66645 -1.26362 4.23234 -0.288711 7.57861V11.4029V34.3488C-0.288711 35.4005 -1.50735 36.978 1.6611 36.261L31.3958 36.5C32.4682 36.5 30.9083 35.4005 30.9083 34.3488V11.881V11.4029V7.57861C31.8832 4.23234 30.0309 5.66645 28.9585 5.66645ZM11.1177 27.4651L9.75284 28.8036L4.68332 23.832L9.75284 18.8603L11.1177 20.1989L7.41306 23.832L11.1177 27.4651ZM13.7987 30.3811L11.9464 29.7118L16.8209 16.8048L18.6732 17.474L13.7987 30.3811ZM20.8668 28.8036L19.5019 27.4651L23.2066 23.832L19.5019 20.1989L20.8668 18.8603L25.9363 23.832L20.8668 28.8036ZM1.6611 11.4029V7.57861H28.9585V11.4029H1.6611Z" fill="white"/>
<path d="M3.75 10.6875C4.26777 10.6875 4.6875 10.2678 4.6875 9.75C4.6875 9.23223 4.26777 8.8125 3.75 8.8125C3.23223 8.8125 2.8125 9.23223 2.8125 9.75C2.8125 10.2678 3.23223 10.6875 3.75 10.6875Z" fill="white"/>
<path d="M6.09375 10.6875C6.61152 10.6875 7.03125 10.2678 7.03125 9.75C7.03125 9.23223 6.61152 8.8125 6.09375 8.8125C5.57598 8.8125 5.15625 9.23223 5.15625 9.75C5.15625 10.2678 5.57598 10.6875 6.09375 10.6875Z" fill="white"/>
<path d="M8.4375 10.6875C8.95527 10.6875 9.375 10.2678 9.375 9.75C9.375 9.23223 8.95527 8.8125 8.4375 8.8125C7.91973 8.8125 7.5 9.23223 7.5 9.75C7.5 10.2678 7.91973 10.6875 8.4375 10.6875Z" fill="white"/>
</g>
<path d="M44.512 23.288C43.184 23.288 41.896 23.112 40.648 22.76C39.416 22.392 38.424 21.92 37.672 21.344L38.992 18.416C39.712 18.944 40.568 19.368 41.56 19.688C42.552 20.008 43.544 20.168 44.536 20.168C45.64 20.168 46.456 20.008 46.984 19.688C47.512 19.352 47.776 18.912 47.776 18.368C47.776 17.968 47.616 17.64 47.296 17.384C46.992 17.112 46.592 16.896 46.096 16.736C45.616 16.576 44.96 16.4 44.128 16.208C42.848 15.904 41.8 15.6 40.984 15.296C40.168 14.992 39.464 14.504 38.872 13.832C38.296 13.16 38.008 12.264 38.008 11.144C38.008 10.168 38.272 9.288 38.8 8.504C39.328 7.704 40.12 7.072 41.176 6.608C42.248 6.144 43.552 5.912 45.088 5.912C46.16 5.912 47.208 6.04 48.232 6.296C49.256 6.552 50.152 6.92 50.92 7.4L49.72 10.352C48.168 9.472 46.616 9.032 45.064 9.032C43.976 9.032 43.168 9.208 42.64 9.56C42.128 9.912 41.872 10.376 41.872 10.952C41.872 11.528 42.168 11.96 42.76 12.248C43.368 12.52 44.288 12.792 45.52 13.064C46.8 13.368 47.848 13.672 48.664 13.976C49.48 14.28 50.176 14.76 50.752 15.416C51.344 16.072 51.64 16.96 51.64 18.08C51.64 19.04 51.368 19.92 50.824 20.72C50.296 21.504 49.496 22.128 48.424 22.592C47.352 23.056 46.048 23.288 44.512 23.288ZM56.0727 10.088H59.8167V23H56.0727V10.088ZM57.9447 8.288C57.2567 8.288 56.6967 8.088 56.2647 7.688C55.8327 7.288 55.6167 6.792 55.6167 6.2C55.6167 5.608 55.8327 5.112 56.2647 4.712C56.6967 4.312 57.2567 4.112 57.9447 4.112C58.6327 4.112 59.1927 4.304 59.6247 4.688C60.0567 5.072 60.2727 5.552 60.2727 6.128C60.2727 6.752 60.0567 7.272 59.6247 7.688C59.1927 8.088 58.6327 8.288 57.9447 8.288ZM65.3314 5.192H69.0754V23H65.3314V5.192ZM87.4062 10.088L81.9582 23H78.0942L72.6702 10.088H76.5342L80.1102 18.872L83.8062 10.088H87.4062ZM95.7601 9.896C97.7601 9.896 99.2961 10.376 100.368 11.336C101.44 12.28 101.976 13.712 101.976 15.632V23H98.4721V21.392C97.7681 22.592 96.4561 23.192 94.5361 23.192C93.5441 23.192 92.6801 23.024 91.9441 22.688C91.2241 22.352 90.6721 21.888 90.2881 21.296C89.9041 20.704 89.7121 20.032 89.7121 19.28C89.7121 18.08 90.1601 17.136 91.0561 16.448C91.9681 15.76 93.3681 15.416 95.2561 15.416H98.2321C98.2321 14.6 97.9841 13.976 97.4881 13.544C96.9921 13.096 96.2481 12.872 95.2561 12.872C94.5681 12.872 93.8881 12.984 93.2161 13.208C92.5601 13.416 92.0001 13.704 91.5361 14.072L90.1921 11.456C90.8961 10.96 91.7361 10.576 92.7121 10.304C93.7041 10.032 94.7201 9.896 95.7601 9.896ZM95.4721 20.672C96.1121 20.672 96.6801 20.528 97.1761 20.24C97.6721 19.936 98.0241 19.496 98.2321 18.92V17.6H95.6641C94.1281 17.6 93.3601 18.104 93.3601 19.112C93.3601 19.592 93.5441 19.976 93.9121 20.264C94.2961 20.536 94.8161 20.672 95.4721 20.672ZM40.36 36.07C39.7627 36.07 39.1887 35.986 38.638 35.818C38.0967 35.6407 37.672 35.4213 37.364 35.16L37.812 34.376C38.12 34.6187 38.5073 34.8193 38.974 34.978C39.4407 35.1273 39.926 35.202 40.43 35.202C41.102 35.202 41.5967 35.0993 41.914 34.894C42.2407 34.6793 42.404 34.3807 42.404 33.998C42.404 33.7273 42.3153 33.5173 42.138 33.368C41.9607 33.2093 41.7367 33.0927 41.466 33.018C41.1953 32.934 40.836 32.8547 40.388 32.78C39.7907 32.668 39.31 32.556 38.946 32.444C38.582 32.3227 38.2693 32.122 38.008 31.842C37.756 31.562 37.63 31.1747 37.63 30.68C37.63 30.064 37.8867 29.56 38.4 29.168C38.9133 28.776 39.6273 28.58 40.542 28.58C41.018 28.58 41.494 28.6453 41.97 28.776C42.446 28.8973 42.838 29.0607 43.146 29.266L42.712 30.064C42.1053 29.644 41.382 29.434 40.542 29.434C39.9073 29.434 39.4267 29.546 39.1 29.77C38.7827 29.994 38.624 30.288 38.624 30.652C38.624 30.932 38.7127 31.156 38.89 31.324C39.0767 31.492 39.3053 31.618 39.576 31.702C39.8467 31.7767 40.22 31.856 40.696 31.94C41.284 32.052 41.7553 32.164 42.11 32.276C42.4647 32.388 42.768 32.5793 43.02 32.85C43.272 33.1207 43.398 33.494 43.398 33.97C43.398 34.614 43.1273 35.1273 42.586 35.51C42.054 35.8833 41.312 36.07 40.36 36.07ZM49.0156 36.07C48.3063 36.07 47.6669 35.9113 47.0976 35.594C46.5283 35.2673 46.0803 34.8193 45.7536 34.25C45.4269 33.6807 45.2636 33.0367 45.2636 32.318C45.2636 31.5993 45.4269 30.9553 45.7536 30.386C46.0803 29.8167 46.5283 29.3733 47.0976 29.056C47.6669 28.7387 48.3063 28.58 49.0156 28.58C49.7249 28.58 50.3643 28.7387 50.9336 29.056C51.5029 29.3733 51.9463 29.8167 52.2636 30.386C52.5903 30.9553 52.7536 31.5993 52.7536 32.318C52.7536 33.0367 52.5903 33.6807 52.2636 34.25C51.9463 34.8193 51.5029 35.2673 50.9336 35.594C50.3643 35.9113 49.7249 36.07 49.0156 36.07ZM49.0156 35.188C49.5383 35.188 50.0049 35.0713 50.4156 34.838C50.8356 34.5953 51.1623 34.2547 51.3956 33.816C51.6289 33.3773 51.7456 32.878 51.7456 32.318C51.7456 31.758 51.6289 31.2587 51.3956 30.82C51.1623 30.3813 50.8356 30.0453 50.4156 29.812C50.0049 29.5693 49.5383 29.448 49.0156 29.448C48.4929 29.448 48.0216 29.5693 47.6016 29.812C47.1909 30.0453 46.8643 30.3813 46.6216 30.82C46.3883 31.2587 46.2716 31.758 46.2716 32.318C46.2716 32.878 46.3883 33.3773 46.6216 33.816C46.8643 34.2547 47.1909 34.5953 47.6016 34.838C48.0216 35.0713 48.4929 35.188 49.0156 35.188ZM57.989 26.382C57.5596 26.382 57.233 26.4987 57.009 26.732C56.7943 26.9653 56.687 27.3107 56.687 27.768V28.636H58.955V29.476H56.715V36H55.721V29.476H54.405V28.636H55.721V27.726C55.721 27.054 55.9123 26.522 56.295 26.13C56.687 25.738 57.2376 25.542 57.947 25.542C58.227 25.542 58.4976 25.584 58.759 25.668C59.0203 25.7427 59.2396 25.8547 59.417 26.004L59.081 26.746C58.7916 26.5033 58.4276 26.382 57.989 26.382ZM64.9451 35.552C64.7584 35.72 64.5251 35.8507 64.2451 35.944C63.9744 36.028 63.6898 36.07 63.3911 36.07C62.7004 36.07 62.1684 35.8833 61.7951 35.51C61.4218 35.1367 61.2351 34.6093 61.2351 33.928V29.476H59.9191V28.636H61.2351V27.026H62.2291V28.636H64.4691V29.476H62.2291V33.872C62.2291 34.3107 62.3364 34.6467 62.5511 34.88C62.7751 35.104 63.0924 35.216 63.5031 35.216C63.7084 35.216 63.9044 35.1833 64.0911 35.118C64.2871 35.0527 64.4551 34.9593 64.5951 34.838L64.9451 35.552ZM78.1959 28.636L75.4099 36H74.4719L72.1479 29.966L69.8239 36H68.8859L66.1139 28.636H67.0659L69.3759 34.894L71.7419 28.636H72.5959L74.9479 34.894L77.2859 28.636H78.1959ZM82.8198 28.58C83.7811 28.58 84.5185 28.8227 85.0318 29.308C85.5451 29.784 85.8018 30.4933 85.8018 31.436V36H84.8498V34.852C84.6258 35.2347 84.2945 35.5333 83.8558 35.748C83.4265 35.9627 82.9131 36.07 82.3158 36.07C81.4945 36.07 80.8411 35.874 80.3558 35.482C79.8705 35.09 79.6278 34.572 79.6278 33.928C79.6278 33.3027 79.8518 32.7987 80.2998 32.416C80.7571 32.0333 81.4805 31.842 82.4698 31.842H84.8078V31.394C84.8078 30.7593 84.6305 30.2787 84.2758 29.952C83.9211 29.616 83.4031 29.448 82.7218 29.448C82.2551 29.448 81.8071 29.5273 81.3778 29.686C80.9485 29.8353 80.5798 30.0453 80.2718 30.316L79.8238 29.574C80.1971 29.2567 80.6451 29.014 81.1678 28.846C81.6905 28.6687 82.2411 28.58 82.8198 28.58ZM82.4698 35.286C83.0298 35.286 83.5105 35.16 83.9118 34.908C84.3131 34.6467 84.6118 34.2733 84.8078 33.788V32.584H82.4978C81.2378 32.584 80.6078 33.0227 80.6078 33.9C80.6078 34.3293 80.7711 34.67 81.0978 34.922C81.4245 35.1647 81.8818 35.286 82.4698 35.286ZM90.2236 30.078C90.457 29.5833 90.8023 29.21 91.2596 28.958C91.7263 28.706 92.3003 28.58 92.9816 28.58V29.546L92.7436 29.532C91.969 29.532 91.3623 29.77 90.9236 30.246C90.485 30.722 90.2656 31.3893 90.2656 32.248V36H89.2716V28.636H90.2236V30.078ZM101.895 32.626H95.735C95.791 33.3913 96.085 34.012 96.617 34.488C97.149 34.9547 97.821 35.188 98.633 35.188C99.0904 35.188 99.5104 35.1087 99.893 34.95C100.276 34.782 100.607 34.5393 100.887 34.222L101.447 34.866C101.12 35.258 100.71 35.5567 100.215 35.762C99.7297 35.9673 99.193 36.07 98.605 36.07C97.849 36.07 97.177 35.9113 96.589 35.594C96.0104 35.2673 95.5577 34.8193 95.231 34.25C94.9044 33.6807 94.741 33.0367 94.741 32.318C94.741 31.5993 94.895 30.9553 95.203 30.386C95.5204 29.8167 95.9497 29.3733 96.491 29.056C97.0417 28.7387 97.6577 28.58 98.339 28.58C99.0204 28.58 99.6317 28.7387 100.173 29.056C100.714 29.3733 101.139 29.8167 101.447 30.386C101.755 30.946 101.909 31.59 101.909 32.318L101.895 32.626ZM98.339 29.434C97.6297 29.434 97.0324 29.6627 96.547 30.12C96.071 30.568 95.8004 31.156 95.735 31.884H100.957C100.892 31.156 100.616 30.568 100.131 30.12C99.655 29.6627 99.0577 29.434 98.339 29.434Z" fill="white"/>
<defs>
<clipPath id="clip0">
<rect width="30" height="30" fill="white" transform="translate(0 6)"/>
</clipPath>
</defs>
</svg>
