<svg width="74" height="74" viewBox="0 0 74 74" fill="none" xmlns="http://www.w3.org/2000/svg">
<rect width="74" height="74" fill="black"/>
<g clip-path="url(#clip0)">
<path d="M65 5.00002H9.00001C6.80001 5.00002 3.00001 2.00002 5.00001 9.00001V17V65C5.00001 67.2 2.50001 70.5 9.00001 69L70 69.5C72.2 69.5 69 67.2 69 65V18V17V9.00001C71 2.00002 67.2 5.00002 65 5.00002ZM28.4 50.6L25.6 53.4L15.2 43L25.6 32.6L28.4 35.4L20.8 43L28.4 50.6ZM33.9 56.7L30.1 55.3L40.1 28.3L43.9 29.7L33.9 56.7ZM48.4 53.4L45.6 50.6L53.2 43L45.6 35.4L48.4 32.6L58.8 43L48.4 53.4ZM9.00001 17V9.00001H65V17H9.00001Z" fill="white"/>
<path d="M13 15C14.1046 15 15 14.1046 15 13C15 11.8954 14.1046 11 13 11C11.8954 11 11 11.8954 11 13C11 14.1046 11.8954 15 13 15Z" fill="white"/>
<path d="M18 15C19.1046 15 20 14.1046 20 13C20 11.8954 19.1046 11 18 11C16.8954 11 16 11.8954 16 13C16 14.1046 16.8954 15 18 15Z" fill="white"/>
<path d="M23 15C24.1046 15 25 14.1046 25 13C25 11.8954 24.1046 11 23 11C21.8954 11 21 11.8954 21 13C21 14.1046 21.8954 15 23 15Z" fill="white"/>
</g>
<defs>
<clipPath id="clip0">
<rect width="64" height="64" fill="white" transform="translate(5 5)"/>
</clipPath>
</defs>
</svg>
